<?xml version="1.0" encoding="UTF-8"?>
<svg version="1.1" xmlns="http://www.w3.org/2000/svg" width="500" height="500">
<path d="M0 0 C3.44623012 2.6082769 6.18487578 5.73527336 9 9 C9.59683594 9.66902344 10.19367188 10.33804688 10.80859375 11.02734375 C11.94714206 12.3131408 13.07592547 13.60764369 14.1953125 14.91015625 C17.72793423 19.0009628 21.37768115 22.98870732 25 27 C29.76786975 32.27985576 34.51512218 37.57291806 39.1875 42.9375 C41.27211164 45.30964429 43.38428644 47.65556065 45.5 50 C48.76390848 53.61676345 51.98790949 57.26389608 55.1875 60.9375 C57.27211164 63.30964429 59.38428644 65.65556065 61.5 68 C64.76704335 71.62023723 67.99520776 75.26983565 71.1953125 78.94921875 C73.22958141 81.26088797 75.3022231 83.5353143 77.375 85.8125 C91.78697437 101.78453345 91.78697437 101.78453345 92.3125 107.25 C91.74237587 114.09148956 86.72799123 118.59421816 82.1875 123.375 C81.11121403 124.52402336 80.03568893 125.67375991 78.9609375 126.82421875 C78.44756836 127.37255371 77.93419922 127.92088867 77.40527344 128.48583984 C75.11400033 130.95465079 72.91064954 133.49620795 70.70703125 136.04296875 C68.66366569 138.3855915 66.58319141 140.69273422 64.5 143 C61.81016569 145.98062721 59.13689636 148.97245233 56.5 152 C53.10746907 155.89512811 49.64805799 159.72782763 46.1875 163.5625 C44.27445851 165.69417481 42.38112388 167.8401911 40.5 170 C37.10746907 173.89512811 33.64805799 177.72782763 30.1875 181.5625 C28.27445851 183.69417481 26.38112388 185.8401911 24.5 188 C21.11292847 191.88885991 17.65977771 195.71596039 14.203125 199.54296875 C12.19629735 201.78107973 10.21823191 204.04047577 8.25 206.3125 C7.68667969 206.94800781 7.12335938 207.58351563 6.54296875 208.23828125 C5.17994474 209.79454411 3.86704794 211.39440254 2.5625 213 C-0.30529711 215.23828067 -2.3083737 215.79625267 -5.95703125 215.54296875 C-12.76642864 213.73320539 -17.66375543 206.14929042 -22 201 C-23.89150577 198.76713205 -25.78811767 196.53867084 -27.6875 194.3125 C-28.19780762 193.71421387 -28.70811523 193.11592773 -29.23388672 192.49951172 C-33.32972033 187.72379773 -37.55679792 183.0845678 -41.84375 178.48046875 C-45.05969439 175.02630626 -48.20517955 171.52564408 -51.29296875 167.95703125 C-53.33633431 165.6144085 -55.41680859 163.30726578 -57.5 161 C-60.76390848 157.38323655 -63.98790949 153.73610392 -67.1875 150.0625 C-69.27211164 147.69035571 -71.38428644 145.34443935 -73.5 143 C-76.76335689 139.38384777 -79.98874156 135.73917444 -83.18359375 132.0625 C-85.28079409 129.68116284 -87.42285703 127.3432484 -89.5625 125 C-91.04548036 123.3367258 -92.52485517 121.67022739 -94 120 C-94.6290625 119.30777344 -95.258125 118.61554688 -95.90625 117.90234375 C-99.21713868 113.97456779 -101.17002302 110.64964102 -100.7578125 105.3984375 C-99.04445218 99.9757404 -94.81737551 96.0623883 -91 92 C-89.91715044 90.82366942 -88.83515315 89.64655387 -87.75390625 88.46875 C-85.51695199 86.0421628 -83.26727099 83.6282935 -81.0078125 81.22265625 C-78.1577443 78.18205669 -75.39511189 75.07651576 -72.671875 71.921875 C-70.64241927 69.58894926 -68.572353 67.29488755 -66.5 65 C-63.81016569 62.01937279 -61.13689636 59.02754767 -58.5 56 C-55.10625985 52.10348353 -51.64569997 48.26935055 -48.18359375 44.43359375 C-46.29151315 42.32488854 -44.42094242 40.20080199 -42.5625 38.0625 C-39.75177475 34.83440488 -36.884201 31.66261557 -34 28.5 C-28.89054515 22.89187463 -23.8765979 17.21829122 -18.97265625 11.4296875 C-18.43237793 10.79393799 -17.89209961 10.15818848 -17.33544922 9.50317383 C-16.24946299 8.22428427 -15.16637894 6.94292377 -14.08642578 5.65893555 C-9.93765056 0.7753837 -6.61495232 -1.74435387 0 0 Z " fill="#FE8D6B" transform="translate(255,135)"/>
<path d="M0 0 C7.5075 -0.04125 15.015 -0.0825 22.75 -0.125 C25.09448242 -0.14320801 27.43896484 -0.16141602 29.85449219 -0.18017578 C60.33437117 -0.32096229 60.33437117 -0.32096229 70.8125 8.53125 C80.72946503 19.04323293 80.20370771 33.23074519 80.3125 46.75 C80.35600586 48.52890625 80.35600586 48.52890625 80.40039062 50.34375 C80.47401445 60.71904576 78.94806172 71.82580974 72 80 C62.36157764 89.21004803 50.89962972 90.32119912 38.18359375 90.1953125 C37.20974731 90.19329834 36.23590088 90.19128418 35.23254395 90.18920898 C31.63414727 90.17883452 28.03581833 90.15091275 24.4375 90.125 C16.373125 90.08375 8.30875 90.0425 0 90 C0 60.3 0 30.6 0 0 Z " fill="#FD3030" transform="translate(212,196)"/>
<path d="M0 0 C3.44623012 2.6082769 6.18487578 5.73527336 9 9 C9.59683594 9.66902344 10.19367188 10.33804688 10.80859375 11.02734375 C11.94714206 12.3131408 13.07592547 13.60764369 14.1953125 14.91015625 C17.72793423 19.0009628 21.37768115 22.98870732 25 27 C29.76786975 32.27985576 34.51512218 37.57291806 39.1875 42.9375 C41.27211164 45.30964429 43.38428644 47.65556065 45.5 50 C48.76390848 53.61676345 51.98790949 57.26389608 55.1875 60.9375 C57.27211164 63.30964429 59.38428644 65.65556065 61.5 68 C64.76704335 71.62023723 67.99520776 75.26983565 71.1953125 78.94921875 C73.22958141 81.26088797 75.3022231 83.5353143 77.375 85.8125 C91.78697437 101.78453345 91.78697437 101.78453345 92.3125 107.25 C91.74237587 114.09148956 86.72799123 118.59421816 82.1875 123.375 C81.11121403 124.52402336 80.03568893 125.67375991 78.9609375 126.82421875 C78.44756836 127.37255371 77.93419922 127.92088867 77.40527344 128.48583984 C75.11400033 130.95465079 72.91064954 133.49620795 70.70703125 136.04296875 C68.66366569 138.3855915 66.58319141 140.69273422 64.5 143 C61.81016569 145.98062721 59.13689636 148.97245233 56.5 152 C53.10746907 155.89512811 49.64805799 159.72782763 46.1875 163.5625 C44.27445851 165.69417481 42.38112388 167.8401911 40.5 170 C37.10746907 173.89512811 33.64805799 177.72782763 30.1875 181.5625 C28.27445851 183.69417481 26.38112388 185.8401911 24.5 188 C21.11292847 191.88885991 17.65977771 195.71596039 14.203125 199.54296875 C12.19629735 201.78107973 10.21823191 204.04047577 8.25 206.3125 C7.68667969 206.94800781 7.12335938 207.58351563 6.54296875 208.23828125 C5.17994474 209.79454411 3.86704794 211.39440254 2.5625 213 C-0.30529711 215.23828067 -2.3083737 215.79625267 -5.95703125 215.54296875 C-12.76642864 213.73320539 -17.66375543 206.14929042 -22 201 C-23.89150577 198.76713205 -25.78811767 196.53867084 -27.6875 194.3125 C-28.19780762 193.71421387 -28.70811523 193.11592773 -29.23388672 192.49951172 C-33.32972033 187.72379773 -37.55679792 183.0845678 -41.84375 178.48046875 C-45.05969439 175.02630626 -48.20517955 171.52564408 -51.29296875 167.95703125 C-53.33633431 165.6144085 -55.41680859 163.30726578 -57.5 161 C-60.76390848 157.38323655 -63.98790949 153.73610392 -67.1875 150.0625 C-69.27211164 147.69035571 -71.38428644 145.34443935 -73.5 143 C-76.76335689 139.38384777 -79.98874156 135.73917444 -83.18359375 132.0625 C-85.28079409 129.68116284 -87.42285703 127.3432484 -89.5625 125 C-91.04548036 123.3367258 -92.52485517 121.67022739 -94 120 C-94.6290625 119.30777344 -95.258125 118.61554688 -95.90625 117.90234375 C-99.21713868 113.97456779 -101.17002302 110.64964102 -100.7578125 105.3984375 C-99.04445218 99.9757404 -94.81737551 96.0623883 -91 92 C-89.91715044 90.82366942 -88.83515315 89.64655387 -87.75390625 88.46875 C-85.51695199 86.0421628 -83.26727099 83.6282935 -81.0078125 81.22265625 C-78.1577443 78.18205669 -75.39511189 75.07651576 -72.671875 71.921875 C-70.64241927 69.58894926 -68.572353 67.29488755 -66.5 65 C-63.81016569 62.01937279 -61.13689636 59.02754767 -58.5 56 C-55.10625985 52.10348353 -51.64569997 48.26935055 -48.18359375 44.43359375 C-46.29151315 42.32488854 -44.42094242 40.20080199 -42.5625 38.0625 C-39.75177475 34.83440488 -36.884201 31.66261557 -34 28.5 C-28.89054515 22.89187463 -23.8765979 17.21829122 -18.97265625 11.4296875 C-18.43237793 10.79393799 -17.89209961 10.15818848 -17.33544922 9.50317383 C-16.24946299 8.22428427 -15.16637894 6.94292377 -14.08642578 5.65893555 C-9.93765056 0.7753837 -6.61495232 -1.74435387 0 0 Z M-13.875 11 C-14.49850342 11.6911792 -15.12200684 12.3823584 -15.7644043 13.09448242 C-17.52372276 15.05099567 -19.26476009 17.02213646 -21 19 C-21.71027344 19.80050781 -22.42054688 20.60101563 -23.15234375 21.42578125 C-24.22901274 22.64938389 -25.29972198 23.87826658 -26.36328125 25.11328125 C-28.37873772 27.43658787 -30.43848462 29.71748465 -32.5 32 C-35.18983431 34.98062721 -37.86310364 37.97245233 -40.5 41 C-43.89253093 44.89512811 -47.35194201 48.72782763 -50.8125 52.5625 C-52.72554149 54.69417481 -54.61887612 56.8401911 -56.5 59 C-59.89253093 62.89512811 -63.35194201 66.72782763 -66.8125 70.5625 C-68.72554149 72.69417481 -70.61887612 74.8401911 -72.5 77 C-75.13689636 80.02754767 -77.81016569 83.01937279 -80.5 86 C-83.86186193 89.72840224 -87.21864541 93.45918071 -90.4921875 97.265625 C-91.76794279 98.73307409 -93.09734543 100.15361955 -94.4375 101.5625 C-96.61408845 104.95797798 -96.44383375 107.01387049 -96 111 C-94.35725655 113.30221731 -92.92999928 115.00438197 -90.9375 116.9375 C-89.91730465 117.98503073 -88.89777259 119.03320783 -87.87890625 120.08203125 C-87.13278076 120.83347412 -87.13278076 120.83347412 -86.37158203 121.60009766 C-84.62929655 123.3783577 -82.99584295 125.23593244 -81.375 127.125 C-78.78290171 130.11397458 -76.15113994 133.06321535 -73.5 136 C-70.23609152 139.61676345 -67.01209051 143.26389608 -63.8125 146.9375 C-61.72788836 149.30964429 -59.61571356 151.65556065 -57.5 154 C-54.23609152 157.61676345 -51.01209051 161.26389608 -47.8125 164.9375 C-44.9673071 168.1751333 -42.07146164 171.3668629 -39.18359375 174.56640625 C-37.29151315 176.67511146 -35.42094242 178.79919801 -33.5625 180.9375 C-30.75177475 184.16559512 -27.884201 187.33738443 -25 190.5 C-22.05731303 193.72803844 -19.12818742 196.96428162 -16.25 200.25 C-15.70085937 200.87390625 -15.15171875 201.4978125 -14.5859375 202.140625 C-13.49746876 203.41676076 -12.44136199 204.72100078 -11.4140625 206.046875 C-10.90617187 206.69140625 -10.39828125 207.3359375 -9.875 208 C-9.43929687 208.5775 -9.00359375 209.155 -8.5546875 209.75 C-7.01174869 211.18843618 -7.01174869 211.18843618 -4.625 211.46875 C-0.97682593 210.81729034 0.35141089 209.17677823 2.875 206.5 C4.18404297 205.12328125 4.18404297 205.12328125 5.51953125 203.71875 C8.12466079 200.86336392 10.70768027 197.99762491 13.22265625 195.0625 C15.2797624 192.67535264 17.38684772 190.33765244 19.5 188 C22.18983431 185.01937279 24.86310364 182.02754767 27.5 179 C30.89253093 175.10487189 34.35194201 171.27217237 37.8125 167.4375 C39.72554149 165.30582519 41.61887612 163.1598089 43.5 161 C46.89253093 157.10487189 50.35194201 153.27217237 53.8125 149.4375 C55.72554149 147.30582519 57.61887612 145.1598089 59.5 143 C62.13689636 139.97245233 64.81016569 136.98062721 67.5 134 C71.37426411 129.70035216 75.22747579 125.38926384 79 121 C79.80308594 120.08734375 80.60617187 119.1746875 81.43359375 118.234375 C82.25988281 117.27015625 83.08617187 116.3059375 83.9375 115.3125 C85.09572266 113.97638672 85.09572266 113.97638672 86.27734375 112.61328125 C88.10467103 110.16046757 88.10467103 110.16046757 88.58984375 107.58203125 C87.70084483 103.69045319 85.24959942 101.24346234 82.625 98.375 C82.08206299 97.76253418 81.53912598 97.15006836 80.97973633 96.51904297 C79.33249478 94.66749053 77.66875596 92.83216231 76 91 C75.07394936 89.97420146 74.14814878 88.9481771 73.22265625 87.921875 C71.56496393 86.09304958 69.90239203 84.26863223 68.234375 82.44921875 C65.70597628 79.67770476 63.23816 76.85872997 60.77734375 74.02734375 C58.70640513 71.66510827 56.60487152 69.33204147 54.5 67 C51.23609152 63.38323655 48.01209051 59.73610392 44.8125 56.0625 C42.72788836 53.69035571 40.61571356 51.34443935 38.5 49 C33.70092208 43.67665307 28.9592205 38.31136661 24.3203125 32.84765625 C19.16587439 26.78416269 13.96306579 20.78396082 8.5625 14.9375 C7.83703979 14.15209839 7.83703979 14.15209839 7.09692383 13.35083008 C5.74015453 11.89225006 4.37030018 10.44587551 3 9 C2.16339844 8.05253906 1.32679688 7.10507813 0.46484375 6.12890625 C-1.7973052 3.89083078 -1.7973052 3.89083078 -4.3828125 3.25 C-8.68617915 4.48320358 -10.9911533 7.70301032 -13.875 11 Z " fill="#7F0D0B" transform="translate(255,135)"/>
<path d="M0 0 C7.5075 -0.04125 15.015 -0.0825 22.75 -0.125 C25.09448242 -0.14320801 27.43896484 -0.16141602 29.85449219 -0.18017578 C60.33437117 -0.32096229 60.33437117 -0.32096229 70.8125 8.53125 C80.72946503 19.04323293 80.20370771 33.23074519 80.3125 46.75 C80.35600586 48.52890625 80.35600586 48.52890625 80.40039062 50.34375 C80.47401445 60.71904576 78.94806172 71.82580974 72 80 C62.36157764 89.21004803 50.89962972 90.32119912 38.18359375 90.1953125 C37.20974731 90.19329834 36.23590088 90.19128418 35.23254395 90.18920898 C31.63414727 90.17883452 28.03581833 90.15091275 24.4375 90.125 C16.373125 90.08375 8.30875 90.0425 0 90 C0 60.3 0 30.6 0 0 Z M5 5 C5 31.4 5 57.8 5 85 C15.580625 85.061875 15.580625 85.061875 26.375 85.125 C28.58106934 85.14320801 30.78713867 85.16141602 33.06005859 85.18017578 C34.83951577 85.18602562 36.61897565 85.19112001 38.3984375 85.1953125 C39.29731689 85.20554443 40.19619629 85.21577637 41.12231445 85.22631836 C50.16538545 85.22876839 58.48713872 84.3031962 66 79 C75.79796363 68.97935537 75.18061463 57.17913375 75.1875 44.0625 C75.19974609 42.83853516 75.21199219 41.61457031 75.22460938 40.35351562 C75.24142631 29.93262042 74.57653963 21.38747083 68 13 C62.01118655 7.16878691 54.42236305 4.86385024 46.2097168 4.88647461 C45.27639526 4.88659546 44.34307373 4.88671631 43.38146973 4.88684082 C42.4138269 4.89195679 41.44618408 4.89707275 40.44921875 4.90234375 C39.54997681 4.90335083 38.65073486 4.90435791 37.72424316 4.90539551 C34.37864906 4.91061089 31.03307319 4.92457213 27.6875 4.9375 C16.4571875 4.9684375 16.4571875 4.9684375 5 5 Z " fill="#860604" transform="translate(212,196)"/>
<path d="M0 0 C12 0 12 0 14 1 C14 12.22 14 23.44 14 35 C9.81537205 37.09231398 4.67855628 36 0 36 C0 24.12 0 12.24 0 0 Z " fill="#F98E6A" transform="translate(244,223)"/>
<path d="M0 0 C18 0 18 0 22 2 C23.54103541 5.08207082 23.16290089 8.32858741 23.16796875 11.7109375 C23.17129715 12.47548248 23.17462555 13.24002747 23.17805481 14.02774048 C23.18312122 15.64674274 23.18546322 17.26575545 23.18530273 18.88476562 C23.18748522 21.35824893 23.20563248 23.83128338 23.22460938 26.3046875 C23.22754418 27.87760264 23.22952839 29.4505199 23.23046875 31.0234375 C23.23765427 31.76210052 23.24483978 32.50076355 23.25224304 33.2618103 C23.23580081 36.97054314 23.191501 39.91388099 21 43 C14.73191505 46.13404247 7.00793201 44 0 44 C0 29.48 0 14.96 0 0 Z M4 4 C4 15.88 4 27.76 4 40 C11.24696416 40.54615699 11.24696416 40.54615699 18 39 C18 27.78 18 16.56 18 5 C13.81537205 2.90768602 8.67855628 4 4 4 Z " fill="#820201" transform="translate(240,219)"/>
</svg>
