<?xml version="1.0" encoding="utf-8"?>
<svg viewBox="0 0 500 500" xmlns="http://www.w3.org/2000/svg" xmlns:bx="https://boxy-svg.com">
  <defs>
    <linearGradient gradientUnits="userSpaceOnUse" x1="319.903" y1="6.127" x2="319.903" y2="485.307" id="gradient-0" gradientTransform="matrix(0.879246, -0.638931, 0.510354, 0.531933, -146.925461, 317.825897)">
      <stop offset="0" style="stop-color: rgb(255, 196, 142);"/>
      <stop offset="1" style="stop-color: rgb(255, 103, 83);"/>
    </linearGradient>
  </defs>
  <path d="M 228.506 22.608 Q 253.045 -2.533 277.584 22.608 L 473.895 223.738 Q 498.434 248.879 473.895 274.02 L 277.584 475.15 Q 253.045 500.291 228.506 475.15 L 32.195 274.02 Q 7.656 248.879 32.195 223.738 Z" style="stroke: rgb(124, 12, 7); fill: url('#gradient-0'); stroke-width: 7px;" transform="matrix(1, 0, 0, 1, 0, 3.552713678800501e-15)" bx:shape="n-gon 253.045 248.879 245.389 251.412 4 0.1 1@d9f2a5ba"/>
  <path d="M 191.89 79.18 L 287.58 79.18 Q 317.42 79.18 336.98 84.32 Q 356.53 89.47 368.02 101.47 Q 379.51 113.48 384.31 134.23 Q 389.11 154.98 389.11 186.54 Q 389.11 217.75 384.31 238.5 Q 379.51 259.25 368.02 271.43 Q 356.53 283.61 336.98 288.58 Q 317.42 293.55 287.58 293.55 L 191.89 293.55 Z M 260.49 132.69 L 260.49 240.05 L 288.61 240.05 Q 303.7 240.05 309.54 235.42 Q 315.37 230.79 315.37 218.44 L 315.37 154.3 Q 315.37 141.95 309.54 137.32 Q 303.7 132.69 288.61 132.69 Z" transform="matrix(1, 0, 0.003889, 1, -31.144283, 61.214352)" style="fill: rgb(255, 255, 255); stroke: rgb(128, 0, 0); stroke-linejoin: round; stroke-width: 14px;"/>
</svg>