<?xml version="1.0" standalone="no"?>
<!DOCTYPE svg PUBLIC "-//W3C//DTD SVG 20010904//EN"
 "http://www.w3.org/TR/2001/REC-SVG-20010904/DTD/svg10.dtd">
<svg version="1.0" xmlns="http://www.w3.org/2000/svg"
 width="700.000000pt" height="700.000000pt" viewBox="0 0 700.000000 700.000000"
 preserveAspectRatio="xMidYMid meet">
<metadata>
Created by potrace 1.14, written by Peter Selinger 2001-2017
</metadata>
<g transform="translate(0.000000,700.000000) scale(0.100000,-0.100000)"
fill="#000000" stroke="none">
<path d="M3410 6887 c-72 -26 -130 -60 -186 -109 -21 -18 -584 -593 -1253
-1278 -668 -685 -1304 -1336 -1412 -1446 -282 -287 -335 -378 -327 -559 3 -79
8 -101 39 -165 20 -41 55 -99 79 -129 68 -85 2862 -2942 2913 -2979 177 -126
354 -133 526 -22 82 53 45 16 1468 1475 1638 1681 1492 1528 1535 1611 95 180
87 333 -26 502 -30 45 -506 540 -1450 1507 -772 792 -1431 1462 -1463 1489
-32 26 -91 64 -131 83 -62 30 -86 36 -160 40 -73 3 -97 0 -152 -20z m640
-1981 c377 -64 549 -157 684 -368 133 -208 196 -603 183 -1133 -20 -768 -186
-1079 -637 -1200 -217 -57 -237 -58 -1106 -62 l-801 -4 -6 578 c-4 318 -7 946
-7 1396 l0 818 798 -4 c675 -4 811 -7 892 -21z"/>
<path d="M3175 4377 c-58 -27 -56 5 -53 -850 l3 -789 33 -29 32 -29 258 0
c365 0 454 19 548 114 91 93 88 72 92 694 2 345 -1 564 -8 599 -28 153 -105
237 -257 279 -81 23 -603 31 -648 11z"/>
</g>
</svg>
